PathFileType	4	(X/Y/Z)	\\147.46.242.158\로컬 디스크 (e)\MOCAP Data\Iguana Capture\iguana\Project 2\Capture day 5 after broken\Session 1\Take01 ddong.trc
DataRate	CameraRate	NumFrames	NumMarkers	Units	OrigDataRate	OrigDataStartFrame	OrigNumFrames
120.0	120.0	8	23	mm	120.0	400	23111
Frame#	Time	ana:head1			ana:head2			ana:bone1			ana:bone2			ana:bone3			ana:tail1			ana:tail2			ana:tail3			ana:tail4			ana:Rforefoot1			ana:Rforefoot2			ana:Rforefoot3			ana:Lforefoot1			ana:Lforefoot2			ana:Lforefoot3			ana:RhindLeg1			ana:RhindLeg2			ana:RhindLeg3			ana:RhindLeg4			ana:LhindLeg1			ana:LhindLeg2			ana:LhindLeg3			ana:LhindLeg4			
		X1	Y1	Z1	X2	Y2	Z2	X3	Y3	Z3	X4	Y4	Z4	X5	Y5	Z5	X6	Y6	Z6	X7	Y7	Z7	X8	Y8	Z8	X9	Y9	Z9	X10	Y10	Z10	X11	Y11	Z11	X12	Y12	Z12	X13	Y13	Z13	X14	Y14	Z14	X15	Y15	Z15	X16	Y16	Z16	X17	Y17	Z17	X18	Y18	Z18	X19	Y19	Z19	X20	Y20	Z20	X21	Y21	Z21	X22	Y22	Z22	X23	Y23	Z23	

7626	63.542	238.88217	299.24283	53.19041	247.81853	292.77277	53.81118	262.64682	278.25250	44.75486	281.63126	257.78409	41.93408	311.90341	241.27399	34.97281	341.37796	229.72543	27.13197	369.27707	212.76068	16.88354	400.81668	195.97107	7.33841	435.03104	172.97751	4.69920	270.19482	286.38840	27.92267	282.71494	285.93127	18.76812	274.36804	285.69373	3.34539	248.45279	276.23041	32.04953	238.16684	269.36044	30.84636	229.81242	281.80258	22.16954	314.87189	249.14606	30.86746	314.78879	264.87573	34.62064	332.57645	262.67737	27.45021	335.91821	274.25607	24.35927	308.56445	229.82852	27.01843	304.05991	214.49579	19.06140	315.91376	207.41235	5.24748	303.52704	206.91930	2.93368	
7627	63.550	238.78162	299.70386	53.24955	247.68660	293.21661	53.85897	262.47086	278.66730	44.72891	281.36188	258.12796	41.92844	311.61746	241.76976	34.95802	341.21375	230.45404	27.02825	369.04083	213.34296	16.80085	400.50348	196.40511	7.32196	434.63919	173.19057	4.71688	270.09995	286.73700	27.95169	282.64120	286.04620	18.77149	274.37503	285.71448	3.29298	248.07042	277.01163	31.74610	237.25436	271.01755	29.68783	229.11378	283.40912	20.56120	314.34344	249.82156	30.95594	312.83035	265.54736	34.91277	330.35962	264.43973	27.20663	332.16177	276.30029	24.90799	308.43619	230.24049	26.98329	304.10773	214.82968	19.07053	315.91415	207.47675	5.33464	303.53406	206.95674	2.94354	
7628	63.558	238.66321	300.16797	53.29676	247.53998	293.66187	53.89841	262.27710	279.07721	44.69482	281.07434	258.47543	41.93399	311.31030	242.25246	34.96102	341.02673	231.16924	26.94641	368.78442	213.91074	16.73880	400.16541	196.83455	7.31520	434.23685	173.41544	4.72520	269.98584	287.08218	27.98454	282.54892	286.15515	18.77143	274.37054	285.73532	3.24494	247.69707	277.75528	31.42662	236.47795	272.61783	28.51908	228.51180	284.86389	18.86980	313.76779	250.50742	31.05277	310.92880	266.12543	35.13926	328.09369	266.29449	26.91987	328.30698	278.24612	25.30308	308.28522	230.65414	26.95158	304.14038	215.16666	19.08050	315.90546	207.56258	5.45336	303.53931	207.00397	2.95469	
7629	63.567	238.52248	300.63422	53.33316	247.37445	294.10730	53.93076	262.06134	279.48065	44.65653	280.76529	258.82623	41.95063	310.98038	242.71916	34.97699	340.81320	231.86868	26.88511	368.50592	214.46782	16.69553	399.80023	197.26024	7.31520	433.82062	173.65614	4.72414	269.85037	287.42001	28.01825	282.43497	286.25931	18.77178	274.35272	285.75089	3.20212	247.33063	278.44974	31.09598	235.84424	274.11340	27.36069	228.02899	286.13196	17.14198	313.21332	251.12500	31.14222	309.10663	266.62350	35.29498	325.78268	268.21219	26.58307	324.41367	280.08023	25.50597	308.10699	231.06998	26.92219	304.15601	215.50632	19.09269	315.88583	207.66670	5.59851	303.53983	207.05576	2.96668	
7630	63.575	238.35483	301.10098	53.35985	247.18575	294.55173	53.95728	261.81964	279.87683	44.61823	280.43234	259.18015	41.97751	310.62662	243.16801	35.00036	340.57034	232.55113	26.84117	368.20392	215.01865	16.66788	399.40750	197.68362	7.31838	433.38733	173.91635	4.71468	269.69174	287.74753	28.04948	282.29706	286.36075	18.77678	274.32162	285.75787	3.16542	246.96786	279.08597	30.75990	235.35046	275.46219	26.23276	227.67744	287.18677	15.42642	312.63666	251.72490	31.21579	307.38141	267.05933	35.37765	323.43350	270.15482	26.18890	320.54486	281.79236	25.48515	307.89798	231.48827	26.89412	304.15314	215.84863	19.10852	315.85388	207.78409	5.76409	303.53253	207.10620	2.97992	
7631	63.583	238.15569	301.56592	53.37787	246.96974	294.99377	53.97924	261.54865	280.26587	44.58385	280.07410	259.53696	42.01297	310.24844	243.59869	35.02530	340.29614	233.21629	26.80973	367.87720	215.56767	16.65154	398.98764	198.10672	7.32085	432.93427	174.19897	4.69874	269.50839	288.06320	28.07509	282.13333	286.46237	18.79090	274.27869	285.75571	3.13607	246.60471	279.65826	30.42460	234.98494	276.63168	25.15385	227.45758	288.01352	13.77042	312.01785	252.31960	31.26668	305.76556	267.45303	35.38722	321.05847	272.07858	25.72992	316.76443	283.37546	25.21939	307.65591	231.90935	26.86645	304.13101	216.19359	19.12934	315.80872	207.90892	5.94428	303.51456	207.14963	2.99577	
7632	63.592	237.92041	302.02634	53.38820	246.72247	295.43234	53.99788	261.24561	280.64886	44.55676	279.69049	259.89688	42.05460	309.84555	244.01239	35.04604	339.98944	233.86472	26.78469	367.52493	216.11890	16.64128	398.54214	198.53198	7.31879	432.45914	174.50616	4.67889	269.29877	288.36780	28.09269	281.94260	286.56790	18.81857	274.22653	285.74695	3.11574	246.23659	280.16486	30.09637	234.72803	277.60117	24.14006	227.35843	288.61032	12.21651	311.37378	252.89812	31.28510	304.26682	267.82587	35.32493	318.67667	273.93686	25.19881	313.13547	284.82541	24.69996	307.37979	232.33382	26.83826	304.08917	216.54190	19.15626	315.75003	208.03581	6.13423	303.48380	207.18161	3.01647	
7633	63.600	237.64470	302.47958	53.39183	246.44012	295.86673	54.01437	260.90857	281.02808	44.53923	279.28238	260.26068	42.09917	309.41800	244.41216	35.05723	339.64990	234.49785	26.75912	367.14630	216.67551	16.63118	398.07312	198.96194	7.30881	431.96051	174.83905	4.65809	269.06107	288.66458	28.10117	281.72443	286.68170	18.86397	274.16843	285.73669	3.10677	245.85890	280.60785	29.78104	234.55423	278.36346	23.20431	227.35950	288.98874	10.79955	310.68573	253.45525	31.20619	302.88901	268.19839	35.19228	316.31491	275.68396	24.58875	309.71793	286.14096	23.93149	307.06970	232.76265	26.80847	304.02737	216.89484	19.19004	315.67804	208.16121	6.33075	303.43948	207.19986	3.04495	
